{
  "accessors": [
    {
      "bufferView": 2,
      "componentType": 5126,
      "count": 672,
      "max": [
        81.87591552734375,
        67.83605194091797,
        129.0504608154297
      ],
      "min": [
        -82.07817077636719,
        -0.09130095690488815,
        -136.37583923339844
      ],
      "type": "VEC3"
    },
    {
      "bufferView": 2,
      "byteOffset": 8064,
      "componentType": 5126,
      "count": 672,
      "max": [
        0.9999570250511169,
        0.9380468130111694,
        0.9552990794181824
      ],
      "min": [
        -0.9999570250511169,
        -0.9380466938018799,
        -0.9553009867668152
      ],
      "type": "VEC3"
    },
    {
      "bufferView": 1,
      "componentType": 5126,
      "count": 672,
      "max": [
        0.9932274222373962,
        0.9656708836555481
      ],
      "min": [
        0.021343659609556198,
        0.003946244716644287
      ],
      "type": "VEC2"
    },
    {
      "bufferView": 0,
      "componentType": 5125,
      "count": 3024,
      "type": "SCALAR"
    },
    {
      "bufferView": 2,
      "byteOffset": 16128,
      "componentType": 5126,
      "count": 3042,
      "max": [
        83.33500671386719,
        118.90583038330078,
        165.1959228515625
      ],
      "min": [
        -85.45819091796875,
        6.788036823272705,
        -174.7698211669922
      ],
      "type": "VEC3"
    },
    {
      "bufferView": 2,
      "byteOffset": 52632,
      "componentType": 5126,
      "count": 3042,
      "max": [
        0.9999383687973022,
        0.9999616146087646,
        0.9999558329582214
      ],
      "min": [
        -0.9997885227203369,
        -0.9999923706054688,
        -0.9999549388885498
      ],
      "type": "VEC3"
    },
    {
      "bufferView": 1,
      "byteOffset": 5376,
      "componentType": 5126,
      "count": 3042,
      "max": [
        0.998976469039917,
        0.994448184967041
      ],
      "min": [
        0.003502009902149439,
        0.004090309143066406
      ],
      "type": "VEC2"
    },
    {
      "bufferView": 0,
      "byteOffset": 12096,
      "componentType": 5125,
      "count": 7548,
      "type": "SCALAR"
    },
    {
      "bufferView": 2,
      "byteOffset": 89136,
      "componentType": 5126,
      "count": 544,
      "max": [
        78.92138671875,
        113.55962371826172,
        -18.04271697998047
      ],
      "min": [
        -78.40753936767578,
        4.763853073120117,
        -181.628173828125
      ],
      "type": "VEC3"
    },
    {
      "bufferView": 2,
      "byteOffset": 95664,
      "componentType": 5126,
      "count": 544,
      "max": [
        0.9999571442604065,
        0.9990440011024475,
        0.9573772549629211
      ],
      "min": [
        -0.9999571442604065,
        -0.985014021396637,
        -0.981915295124054
      ],
      "type": "VEC3"
    },
    {
      "bufferView": 1,
      "byteOffset": 29712,
      "componentType": 5126,
      "count": 544,
      "max": [
        0.9927390217781067,
        0.9948337078094482
      ],
      "min": [
        0.002716019982472062,
        0.0023931264877319336
      ],
      "type": "VEC2"
    },
    {
      "bufferView": 0,
      "byteOffset": 42288,
      "componentType": 5125,
      "count": 1776,
      "type": "SCALAR"
    }
  ],
  "asset": {
    "extras": {
      "author": "SMF Features Developed From Cheryl Hill (https://sketchfab.com/cherylhill28)",
      "license": "CC-BY-4.0 (http://creativecommons.org/licenses/by/4.0/)",
      "source": "https://sketchfab.com/3d-models/cars-fast-as-lightning-mcqueen-1463c732512f4c82ac9ba18cb5327b29",
      "title": "Cars Fast As Lightning - McQueen"
    },
    "generator": "Sketchfab-16.72.0",
    "version": "2.0"
  },
  "bufferViews": [
    {
      "buffer": 0,
      "byteLength": 49392,
      "name": "floatBufferViews",
      "target": 34963
    },
    {
      "buffer": 0,
      "byteLength": 34064,
      "byteOffset": 49392,
      "byteStride": 8,
      "name": "floatBufferViews",
      "target": 34962
    },
    {
      "buffer": 0,
      "byteLength": 102192,
      "byteOffset": 83456,
      "byteStride": 12,
      "name": "floatBufferViews",
      "target": 34962
    }
  ],
  "buffers": [
    {
      "byteLength": 185648,
      "uri": "scene.bin"
    }
  ],
  "images": [
    {
      "uri": "textures/mcqueen_wheel.007_baseColor.png"
    },
    {
      "uri": "textures/mcqueen_body.009_baseColor.png"
    }
  ],
  "materials": [
    {
      "doubleSided": true,
      "name": "mcqueen_wheel.007",
      "pbrMetallicRoughness": {
        "baseColorTexture": {
          "index": 0
        },
        "metallicFactor": 0.0,
        "roughnessFactor": 0.8308205978495098
      }
    },
    {
      "doubleSided": true,
      "name": "mcqueen_body.009",
      "pbrMetallicRoughness": {
        "baseColorTexture": {
          "index": 1
        },
        "metallicFactor": 0.0,
        "roughnessFactor": 0.8308205978495098
      }
    },
    {
      "doubleSided": true,
      "name": "mcqueen_body.010",
      "pbrMetallicRoughness": {
        "baseColorTexture": {
          "index": 1
        },
        "metallicFactor": 0.0,
        "roughnessFactor": 0.8308205978495098
      }
    }
  ],
  "meshes": [
    {
      "name": "cos_mcqueen_wheel.004_mcqueen_wheel.007_0",
      "primitives": [
        {
          "attributes": {
            "NORMAL": 1,
            "POSITION": 0,
            "TEXCOORD_0": 2
          },
          "indices": 3,
          "material": 0,
          "mode": 4
        }
      ]
    },
    {
      "name": "cos_mcqueen_body.004_mcqueen_body.009_0",
      "primitives": [
        {
          "attributes": {
            "NORMAL": 5,
            "POSITION": 4,
            "TEXCOORD_0": 6
          },
          "indices": 7,
          "material": 1,
          "mode": 4
        }
      ]
    },
    {
      "name": "cos_mcqueen_atc.002_mcqueen_body.010_0",
      "primitives": [
        {
          "attributes": {
            "NORMAL": 9,
            "POSITION": 8,
            "TEXCOORD_0": 10
          },
          "indices": 11,
          "material": 2,
          "mode": 4
        }
      ]
    }
  ],
  "nodes": [
    {
      "children": [
        1
      ],
      "matrix": [
        1.0,
        0.0,
        0.0,
        0.0,
        0.0,
        2.220446049250313e-16,
        -1.0,
        0.0,
        0.0,
        1.0,
        2.220446049250313e-16,
        0.0,
        0.0,
        0.0,
        0.0,
        1.0
      ],
      "name": "Sketchfab_model"
    },
    {
      "children": [
        2
      ],
      "matrix": [
        0.009999999776482582,
        0.0,
        0.0,
        0.0,
        0.0,
        0.0,
        0.009999999776482582,
        0.0,
        0.0,
        -0.009999999776482582,
        0.0,
        0.0,
        0.0,
        0.0,
        0.0,
        1.0
      ],
      "name": "NeonMcQueen.fbx"
    },
    {
      "children": [
        3,
        5,
        7
      ],
      "name": "RootNode"
    },
    {
      "children": [
        4
      ],
      "matrix": [
        1.0,
        0.0,
        0.0,
        0.0,
        0.0,
        0.9999999999999971,
        -7.549789415861594e-08,
        0.0,
        0.0,
        7.549789415861594e-08,
        0.9999999999999971,
        0.0,
        -3894.651123046875,
        0.0,
        29.484859466552734,
        1.0
      ],
      "name": "cos_mcqueen_wheel.004"
    },
    {
      "mesh": 0,
      "name": "cos_mcqueen_wheel.004_mcqueen_wheel.007_0"
    },
    {
      "children": [
        6
      ],
      "matrix": [
        1.0,
        0.0,
        0.0,
        0.0,
        0.0,
        0.9999999999999971,
        -7.549789415861594e-08,
        0.0,
        0.0,
        7.549789415861594e-08,
        0.9999999999999971,
        0.0,
        -3894.651123046875,
        0.0,
        29.484859466552734,
        1.0
      ],
      "name": "cos_mcqueen_body.004"
    },
    {
      "mesh": 1,
      "name": "cos_mcqueen_body.004_mcqueen_body.009_0"
    },
    {
      "children": [
        8
      ],
      "matrix": [
        1.0,
        0.0,
        0.0,
        0.0,
        0.0,
        0.9999999999999971,
        -7.549789415861594e-08,
        0.0,
        0.0,
        7.549789415861594e-08,
        0.9999999999999971,
        0.0,
        -3894.651123046875,
        0.0,
        29.484859466552734,
        1.0
      ],
      "name": "cos_mcqueen_atc.002"
    },
    {
      "mesh": 2,
      "name": "cos_mcqueen_atc.002_mcqueen_body.010_0"
    }
  ],
  "samplers": [
    {
      "magFilter": 9729,
      "minFilter": 9987,
      "wrapS": 10497,
      "wrapT": 10497
    }
  ],
  "scene": 0,
  "scenes": [
    {
      "name": "Sketchfab_Scene",
      "nodes": [
        0
      ]
    }
  ],
  "textures": [
    {
      "sampler": 0,
      "source": 0
    },
    {
      "sampler": 0,
      "source": 1
    }
  ]
}
